<mxfile host="app.diagrams.net" modified="2024-03-21T09:08:31.409Z" agent="Mozilla/5.0 (X11; Linux x86_64; rv:124.0) Gecko/20100101 Firefox/124.0" version="24.0.7" etag="ahU7p1-xnvNt2DjNrsQ3" type="github">
  <diagram name="Page-1" id="SBxXnupXvsoxWS_aCSso">
    <mxGraphModel>
      <root>
        <mxCell id="0" />
        <mxCell id="1" parent="0" />
      </root>
    </mxGraphModel>
  </diagram>
</mxfile>
